<?xml version="1.0" encoding="UTF-8"?>
<svg width="64px" height="65px" viewBox="0 0 64 65" version="1.1" xmlns="http://www.w3.org/2000/svg" xmlns:xlink="http://www.w3.org/1999/xlink">
    <title>Coin / BTSE</title>
    <defs>
        <linearGradient x1="50%" y1="0%" x2="50%" y2="99.0999789%" id="linearGradient-1">
            <stop stop-color="#0A56BC" offset="0%"></stop>
            <stop stop-color="#1099FF" offset="100%"></stop>
        </linearGradient>
    </defs>
    <g id="Coin-/-BTSE" stroke="none" stroke-width="1" fill="none" fill-rule="evenodd">
        <g id="Group" fill-rule="nonzero">
            <circle id="Combined-Shape" fill="url(#linearGradient-1)" cx="31.7" cy="32.5" r="31.7"></circle>
            <path d="M35.6221402,51 C36.4585486,51 38.1564576,50.8362892 40.7158672,50.5088677 C42.6396064,50.2633015 44.0782288,49.8703956 45.0317343,49.3301501 C46.5707257,48.4624829 47.7835178,47.2837653 48.6701107,45.7939973 C49.5567036,44.3042292 50,42.6261937 50,40.7598909 C50,38.46794 49.3768758,36.5648022 48.1306273,35.0504775 C46.8843788,33.5361528 44.9397294,32.46794 42.296679,31.845839 C44.0364084,31.2564802 45.3579336,30.4542974 46.2612546,29.4392906 C47.6162362,27.9167804 48.2937269,26.0914052 48.2937269,23.9631651 C48.2937269,21.425648 47.3444034,19.2974079 45.4457565,17.5784447 C43.5471095,15.8594816 40.8246002,15 37.2782288,15 L37.2782288,15 L16,15 L16,51 L35.6221402,51 Z M32.1036269,29 L27,29 L27,22 L32.1813472,22 C33.9602763,22 35.2081174,22.3021583 35.9248705,22.9064748 C36.6416235,23.5107914 37,24.3501199 37,25.4244604 C37,26.5827338 36.6416235,27.4682254 35.9248705,28.0809353 C35.2081174,28.6936451 33.9343696,29 32.1036269,29 L32.1036269,29 Z M32.722973,43 L27,43 L27,36 L32.6981982,36 C34.6636637,36 36.0386637,36.3103255 36.8231982,36.9309764 C37.6077327,37.5516274 38,38.372615 38,39.3939394 C38,40.4938272 37.6036036,41.3698092 36.8108108,42.0218855 C36.018018,42.6739618 34.6554054,43 32.722973,43 L32.722973,43 Z" id="B" fill="#FFFFFF"></path>
        </g>
    </g>
</svg>