<svg height="19" viewBox="0 0 19 19" width="19" xmlns="http://www.w3.org/2000/svg" xmlns:xlink="http://www.w3.org/1999/xlink"><filter id="a"><feColorMatrix in="SourceGraphic" values="0 0 0 0 0.058824 0 0 0 0 1.000000 0 0 0 0 0.000000 0 0 0 1.000000 0"/></filter><g fill="none" fill-rule="evenodd" filter="url(#a)" transform="translate(-5 -6)"><path d="m12.435 15.277 1.488-1.488h-10.756c-.435 0-.792-.357-.792-.792s.357-.792.792-.792h10.756l-1.488-1.496c-.309-.309-.309-.807 0-1.116.31-.309.808-.309 1.116 0l2.842 2.842c.31.31.31.808 0 1.116l-2.842 2.842c-.308.31-.806.31-1.116 0-.3-.3-.309-.806 0-1.116m-5.87-11.554-1.488 1.487h10.757c.435 0 .791.356.791.792 0 .435-.356.791-.791.791h-10.757l1.488 1.497c.31.308.31.807 0 1.116-.309.309-.808.309-1.116 0l-2.842-2.841c-.31-.309-.31-.808 0-1.116l2.842-2.842c.308-.31.807-.31 1.116 0 .3.3.31.807 0 1.116" fill="#000" transform="matrix(0 1 -1 0 24 6)"/></g></svg>