<svg height="23" viewBox="0 0 23 23" width="23" xmlns="http://www.w3.org/2000/svg"
     xmlns:xlink="http://www.w3.org/1999/xlink">
    <defs>
        <filter id="a">
            <feColorMatrix in="SourceGraphic" type="matrix"
                           values="0 0 0 0 1.000000 0 0 0 0 1.000000 0 0 0 0 1.000000 0 0 0 1.000000 0"/>
        </filter>
        <path id="b"
              d="m5.767 11c0-3.034 2.466-5.5 5.5-5.5.724 0 1.43.138 2.063.403.33.138.706.037.953-.21.468-.468.303-1.256-.312-1.504-.834-.339-1.75-.522-2.704-.522-4.051 0-7.333 3.281-7.333 7.333h-1.64c-.413 0-.615.495-.322.78l2.558 2.557c.183.183.467.183.65 0l2.558-2.558c.284-.284.083-.779-.33-.779h-1.64zm11.596-3.346-2.557 2.558c-.294.293-.092.788.32.788h1.641c0 3.034-2.466 5.5-5.5 5.5-.724 0-1.43-.137-2.062-.403-.33-.138-.706-.037-.954.21-.467.468-.302 1.256.312 1.504.834.339 1.75.522 2.704.522 4.052 0 7.334-3.281 7.334-7.333h1.64c.413 0 .615-.495.321-.78l-2.557-2.557c-.174-.183-.468-.183-.642-.009z"/>
        <mask id="c" fill="#fff">
            <use fill="#fff" fill-rule="evenodd" xlink:href="#b"/>
        </mask>
    </defs>
    <g fill="none" fill-rule="evenodd" filter="url(#a)" transform="translate(-6.5 .523)">
        <g fill="#000" transform="translate(7)">
            <use xlink:href="#b"/>
            <path d="m0 0h22v22h-22z" mask="url(#c)"/>
        </g>
    </g>
</svg>
