<svg height="106" viewBox="0 0 120 106" width="120" xmlns="http://www.w3.org/2000/svg" xmlns:xlink="http://www.w3.org/1999/xlink"><filter id="a"><feColorMatrix in="SourceGraphic" type="matrix" values="0 0 0 0 0.000000 0 0 0 0 0.000000 0 0 0 0 0.000000 0 0 0 0.200000 0"/></filter><mask id="b" fill="#fff"><path d="m0 0h120v106h-120z" fill="#fff" fill-rule="evenodd"/></mask><g fill="none" fill-rule="evenodd" filter="url(#a)" transform="translate(-128 -147)"><path d="m59.974955 54.6414508h.0885997l8.4522807-8.8902232c.0427509-.0448529.0427509-.11587 0-.1607229l-8.4522807-8.8883543h-.0885997v3.6953825h-36.478884c-.4151171 0-.8630719 0-1.3364293-.0049837.0724906.000623.139405.000623.2106564.0012459.3940515.0031148.7738527.0037378 1.1257729.0037378-7.7044503 0-13.86491268-6.7702996-12.9076649-14.7036604.8029728-6.6525607 6.7936709-11.4505775 13.4597088-11.4505775h22.5891882c.0638165 0 .1152414-.0523284.1152414-.116493l.0006196-10.31430352c0-.0641646-.0520445-.11649301-.115861-.11649301h-23.1412321c-9.8011017 0-18.21001202 6.07134153-21.72859452 14.66503703-.00681536.0161969-.00991325.0342626-.00991325.0523284 0 .4510211.01610902.8789927.02973974 1.311948-.00743494-.2398385-.02230481-.4684639-.0254027-.714532-.00185873-.1283292-.18215588-.1769198-.22800464-.057312-1.31660289 3.4767245-1.85253771 7.3365677-1.34448389 11.3758226 1.50619371 11.9582877 12.18337846 20.6155249 24.17220956 20.6155249h35.6133337zm59.83511-30.3292975c-1.505575-11.9582877-12.182759-20.61552488-24.1715904-20.61552488h-35.6635196v-3.69662842h-.08798l-8.4529004 8.89022316c-.0427508.04485293-.0427508.11587005 0 .16010002l8.4522808 8.88835432h.0885996v-3.6953825h36.5284503c.0012391 0 .0018587.0006229.0030979.0006229.3190825 0 .6617091.000623 1.015488.0031148-.3550181-.0024918-.6982642-.0031148-1.0185859-.0031148 7.7050697 0 13.8649127 6.7709226 12.9076647 14.7036604-.802353 6.6531836-6.793671 11.4505775-13.4597086 11.4505775h-6.8178344c-.0644361 0-.1164807.0523284-.1164807.116493v10.3143035c0 .0641646.0520446.116493.1164807.116493h7.3698783c9.8017217 0 18.2106317-6.0713415 21.7285947-14.665037.006815-.0161969.010533-.0342627.010533-.0523284 0-.0230494-.001859-.04423-.001859-.0679024 0 .0236724.001859.044853.001859.0679024-.00062-.1713133-.009914-.3301674-.011772-.4989888-.002479-.2734782-.009914-.5413499-.017968-.8073526.007435.2385926.021685.4653491.024783.7083024.001859.1289522.182775.1781658.228005.057935 1.316603-3.4773474 1.853777-7.3371907 1.344484-11.3758226zm-46.804149-4.4591281h10.4906918v61.6522118c0 12.0542232-8.6108927 22.789023-20.5049283 24.304055-4.0161035.511448-7.8556273-.028033-11.3134912-1.351817-.118959-.045476-.0706319-.22738.0570012-.229249.2193305-.002492.4244108-.015574.6363064-.022426l.0334572-.001869c-.418215.011836-.8296147.028033-1.2639388.028656-.0173482 0-.0353159-.003115-.0520445-.009967-8.5470762-3.537775-14.5854818-11.9919277-14.5854818-21.8471117v-25.7623978c0-.0641646.0520446-.116493.1158611-.116493h10.2583502c.064436 0 .115861.0523284.115861.116493v25.2073429c0 6.7023973 4.7719885 12.726394 11.3890797 13.5331237 7.8890845.961846 14.6226564-5.2309722 14.623276-12.9774458v-.000623z" fill="#0fff00" mask="url(#b)" transform="translate(128 147)"/></g></svg>