<svg xmlns="http://www.w3.org/2000/svg" xmlns:xlink="http://www.w3.org/1999/xlink" width="24" height="24" viewBox="0 0 24 24">
    <defs>
        <filter id="4jrdezzpxa">
            <feColorMatrix in="SourceGraphic" values="0 0 0 0 0.776471 0 0 0 0 0.776471 0 0 0 0 0.776471 0 0 0 1.000000 0"/>
        </filter>
        <path id="8mm4xtccjb" d="M11.042 5.003c-.41 0-.75.34-.75.75v3.68c0 .35.19.68.49.86l3.12 1.85c.36.21.82.09 1.03-.26.21-.36.09-.82-.26-1.03l-2.88-1.71v-3.4c0-.4-.34-.74-.75-.74m.51-5c-5.09-.14-9.26 3.95-9.26 9H.502c-.45 0-.67.54-.35.85l2.79 2.8c.2.2.51.2.71 0l2.79-2.8c.31-.31.09-.85-.36-.85h-1.79c0-3.9 3.18-7.05 7.1-7 3.72.05 6.85 3.18 6.9 6.9.05 3.91-3.1 7.1-7 7.1-1.61 0-3.1-.55-4.28-1.48-.4-.31-.96-.28-1.32.08-.42.42-.39 1.13.08 1.49 1.52 1.2 3.43 1.91 5.52 1.91 5.05 0 9.14-4.17 9-9.26-.13-4.69-4.05-8.61-8.74-8.74"/>
    </defs>
    <g fill="none" fill-rule="evenodd">
        <g filter="url(#4jrdezzpxa)" transform="translate(-332 -40)">
            <g>
                <g transform="translate(332 40) translate(2 3)">
                    <mask id="n73b80yl9c" fill="#fff">
                        <use xlink:href="#8mm4xtccjb"/>
                    </mask>
                    <use fill="#000" xlink:href="#8mm4xtccjb"/>
                    <path fill="#000" d="M-2 -3H22V21H-2z" mask="url(#n73b80yl9c)"/>
                </g>
            </g>
        </g>
    </g>
</svg>
