<?xml version="1.0" encoding="UTF-8"?>
<!DOCTYPE svg PUBLIC "-//W3C//DTD SVG 1.1//EN" "http://www.w3.org/Graphics/SVG/1.1/DTD/svg11.dtd">
<svg xmlns="http://www.w3.org/2000/svg" version="1.1" width="537px" height="537px" style="shape-rendering:geometricPrecision; text-rendering:geometricPrecision; image-rendering:optimizeQuality; fill-rule:evenodd; clip-rule:evenodd" xmlns:xlink="http://www.w3.org/1999/xlink">
<g><path style="opacity:0.995" fill="#242830" d="M 244.5,-0.5 C 259.833,-0.5 275.167,-0.5 290.5,-0.5C 382.703,9.99341 452.869,54.6601 501,133.5C 521.362,169.301 533.195,207.634 536.5,248.5C 536.5,261.833 536.5,275.167 536.5,288.5C 526.957,379.809 483.623,449.975 406.5,499C 371.136,519.844 333.136,532.344 292.5,536.5C 275.833,536.5 259.167,536.5 242.5,536.5C 140.457,523.417 66.9568,470.751 22,378.5C 10.4822,351.801 2.98218,324.134 -0.5,295.5C -0.5,277.167 -0.5,258.833 -0.5,240.5C 14.3204,135.187 70.3204,61.0202 167.5,18C 192.503,8.49785 218.17,2.33118 244.5,-0.5 Z"/></g>
<g><path style="opacity:1" fill="#a5f73e" d="M 303.5,89.5 C 279.833,90.8333 256.167,90.8333 232.5,89.5C 242.66,74.9963 254.327,61.6629 267.5,49.5C 280.604,61.9324 292.604,75.2657 303.5,89.5 Z"/></g>
<g><path style="opacity:1" fill="#9af546" d="M 232.5,89.5 C 256.167,90.8333 279.833,90.8333 303.5,89.5C 312.162,100.814 319.829,112.814 326.5,125.5C 287.337,126.499 248.004,126.832 208.5,126.5C 214.932,113.084 222.932,100.75 232.5,89.5 Z"/></g>
<g><path style="opacity:1" fill="#91f24d" d="M 326.5,125.5 C 330.594,131.351 333.927,137.685 336.5,144.5C 313.843,145.833 290.843,146.5 267.5,146.5C 244.331,146.5 221.331,146.167 198.5,145.5C 201.073,138.685 204.406,132.351 208.5,126.5C 248.004,126.832 287.337,126.499 326.5,125.5 Z"/></g>
<g><path style="opacity:1" fill="#8bf151" d="M 336.5,144.5 C 339.678,150.196 342.344,156.196 344.5,162.5C 319.175,163.833 293.509,164.5 267.5,164.5C 241.664,164.5 215.998,164.167 190.5,163.5C 192.656,157.196 195.322,151.196 198.5,145.5C 221.331,146.167 244.331,146.5 267.5,146.5C 290.843,146.5 313.843,145.833 336.5,144.5 Z"/></g>
<g><path style="opacity:1" fill="#86ef55" d="M 344.5,162.5 C 347.602,168.802 349.936,175.469 351.5,182.5C 295.49,183.163 239.823,182.496 184.5,180.5C 185.731,174.468 187.731,168.801 190.5,163.5C 215.998,164.167 241.664,164.5 267.5,164.5C 293.509,164.5 319.175,163.833 344.5,162.5 Z"/></g>
<g><path style="opacity:1" fill="#7fed5a" d="M 184.5,180.5 C 239.823,182.496 295.49,183.163 351.5,182.5C 353.924,187.847 355.591,193.513 356.5,199.5C 297.509,201.496 238.176,202.163 178.5,201.5C 179.723,194.178 181.723,187.178 184.5,180.5 Z"/></g>
<g><path style="opacity:1" fill="#79ec5e" d="M 356.5,199.5 C 358.593,204.878 359.927,210.545 360.5,216.5C 360.5,217.833 360.5,219.167 360.5,220.5C 298.331,220.832 236.331,220.499 174.5,219.5C 174.896,213.253 176.23,207.253 178.5,201.5C 238.176,202.163 297.509,201.496 356.5,199.5 Z"/></g>
<g><path style="opacity:1" fill="#72ea63" d="M 360.5,216.5 C 362.137,221.927 363.137,227.593 363.5,233.5C 363.5,235.5 363.5,237.5 363.5,239.5C 299.158,240.163 235.158,239.496 171.5,237.5C 171.439,231.196 172.439,225.196 174.5,219.5C 236.331,220.499 298.331,220.832 360.5,220.5C 360.5,219.167 360.5,217.833 360.5,216.5 Z"/></g>
<g><path style="opacity:1" fill="#6de867" d="M 363.5,233.5 C 364.815,240.629 365.482,247.963 365.5,255.5C 333.002,256.167 300.335,256.5 267.5,256.5C 234.493,256.5 201.826,255.833 169.5,254.5C 169.816,248.651 170.482,242.984 171.5,237.5C 235.158,239.496 299.158,240.163 363.5,239.5C 363.5,237.5 363.5,235.5 363.5,233.5 Z"/></g>
<g><path style="opacity:1" fill="#66e66c" d="M 169.5,254.5 C 201.826,255.833 234.493,256.5 267.5,256.5C 300.335,256.5 333.002,256.167 365.5,255.5C 366.492,262.648 366.825,269.981 366.5,277.5C 300.5,277.5 234.5,277.5 168.5,277.5C 168.175,269.648 168.508,261.982 169.5,254.5 Z"/></g>
<g><path style="opacity:1" fill="#60e571" d="M 168.5,277.5 C 234.5,277.5 300.5,277.5 366.5,277.5C 366.5,283.833 366.5,290.167 366.5,296.5C 334.167,296.5 301.833,296.5 269.5,296.5C 268.57,282.09 267.237,282.09 265.5,296.5C 232.944,297.148 200.61,296.481 168.5,294.5C 168.5,288.833 168.5,283.167 168.5,277.5 Z"/></g>
<g><path style="opacity:1" fill="#5ae375" d="M 168.5,294.5 C 200.61,296.481 232.944,297.148 265.5,296.5C 265.497,301.527 265.164,306.527 264.5,311.5C 233.39,313.481 202.057,314.147 170.5,313.5C 170.768,311.901 170.434,310.568 169.5,309.5C 169.497,304.473 169.164,299.473 168.5,294.5 Z"/></g>
<g><path style="opacity:1" fill="#5ae275" d="M 269.5,296.5 C 301.833,296.5 334.167,296.5 366.5,296.5C 366.687,302.212 366.354,307.879 365.5,313.5C 334.167,313.5 302.833,313.5 271.5,313.5C 270.833,307.833 270.167,302.167 269.5,296.5 Z"/></g>
<g><path style="opacity:1" fill="#53e07a" d="M 169.5,309.5 C 170.434,310.568 170.768,311.901 170.5,313.5C 202.057,314.147 233.39,313.481 264.5,311.5C 263.646,319.518 262.646,327.518 261.5,335.5C 232.167,335.5 202.833,335.5 173.5,335.5C 171.805,326.929 170.472,318.263 169.5,309.5 Z"/></g>
<g><path style="opacity:1" fill="#53e17a" d="M 271.5,313.5 C 302.833,313.5 334.167,313.5 365.5,313.5C 364.632,320.839 363.632,328.172 362.5,335.5C 332.76,335.825 303.093,335.492 273.5,334.5C 272.833,327.5 272.167,320.5 271.5,313.5 Z"/></g>
<g><path style="opacity:1" fill="#4ddf7e" d="M 173.5,335.5 C 202.833,335.5 232.167,335.5 261.5,335.5C 260.833,341.167 260.167,346.833 259.5,352.5C 231.833,352.5 204.167,352.5 176.5,352.5C 174.962,346.94 173.962,341.274 173.5,335.5 Z"/></g>
<g><path style="opacity:1" fill="#4ddf7e" d="M 273.5,334.5 C 303.093,335.492 332.76,335.825 362.5,335.5C 361.396,340.455 360.396,345.455 359.5,350.5C 331.726,352.478 303.726,353.145 275.5,352.5C 275.197,346.442 274.531,340.442 273.5,334.5 Z"/></g>
<g><path style="opacity:1" fill="#47dc82" d="M 359.5,350.5 C 357.706,356.802 356.04,363.136 354.5,369.5C 339.324,369.829 324.324,369.496 309.5,368.5C 311.725,364.102 314.559,360.102 318,356.5C 318.667,355.833 318.667,355.167 318,354.5C 305.429,363.869 292.596,372.869 279.5,381.5C 277.792,371.879 276.459,362.213 275.5,352.5C 303.726,353.145 331.726,352.478 359.5,350.5 Z"/></g>
<g><path style="opacity:1" fill="#43db85" d="M 176.5,352.5 C 204.167,352.5 231.833,352.5 259.5,352.5C 258.75,362.256 257.416,371.923 255.5,381.5C 242.655,372.105 229.655,363.272 216.5,355C 224.136,364.79 231.136,374.957 237.5,385.5C 220.675,386.497 203.675,386.83 186.5,386.5C 182.285,375.42 178.951,364.087 176.5,352.5 Z"/></g>
<g><path style="opacity:1" fill="#40db88" d="M 309.5,368.5 C 324.324,369.496 339.324,369.829 354.5,369.5C 351.32,379.222 347.986,388.889 344.5,398.5C 325.992,398.83 307.659,398.497 289.5,397.5C 295.429,387.303 302.096,377.636 309.5,368.5 Z"/></g>
<g><path style="opacity:1" fill="#39d98c" d="M 237.5,385.5 C 244.044,392.707 249.377,400.707 253.5,409.5C 234.576,410.487 215.576,410.82 196.5,410.5C 192.652,402.793 189.319,394.793 186.5,386.5C 203.675,386.83 220.675,386.497 237.5,385.5 Z"/></g>
<g><path style="opacity:1" fill="#32d792" d="M 253.5,409.5 C 251.802,420.786 250.468,432.119 249.5,443.5C 237.5,443.5 225.5,443.5 213.5,443.5C 206.597,433.229 200.93,422.229 196.5,410.5C 215.576,410.82 234.576,410.487 253.5,409.5 Z"/></g>
<g><path style="opacity:1" fill="#33d791" d="M 289.5,397.5 C 307.659,398.497 325.992,398.83 344.5,398.5C 338.124,414.253 330.458,429.253 321.5,443.5C 309.249,444.114 297.249,443.447 285.5,441.5C 284.729,430.435 283.396,419.435 281.5,408.5C 283.441,404.275 286.108,400.608 289.5,397.5 Z"/></g>
<g><path style="opacity:1" fill="#27d299" d="M 213.5,443.5 C 225.5,443.5 237.5,443.5 249.5,443.5C 247.92,457.887 246.087,472.22 244,486.5C 232.837,472.843 222.67,458.51 213.5,443.5 Z"/></g>
<g><path style="opacity:1" fill="#27d198" d="M 285.5,441.5 C 297.249,443.447 309.249,444.114 321.5,443.5C 313.132,459.047 302.965,473.38 291,486.5C 288.657,471.561 286.824,456.561 285.5,441.5 Z"/></g>
</svg>
