<svg height="350.837989" viewBox="0 0 400 350.83798883" width="400" xmlns="http://www.w3.org/2000/svg"><g fill-rule="evenodd"><path d="m107.603 48.303c-.129.129-.235 10.551-.235 23.159v22.924h34.906 34.906l.192.789c.105.435.148 7.343.094 15.351l-.098 14.562-2.28.251c-1.255.137-4.965.419-8.246.626-12.429.782-20.748 1.632-31.053 3.176-1.447.217-3.657.54-4.912.719-3.439.49-7.091 1.132-11.579 2.037-.868.175-2.447.484-3.509.686-4.808.916-15.196 3.817-19.649 5.487-19.219 7.206-23.416 15.505-11.754 23.239 2.622 1.739 4.834 2.87 8.421 4.305.482.193 1.232.493 1.667.668 3.019 1.211 8.493 2.999 11.842 3.868 4.482 1.163 6.363 1.617 8.772 2.116 1.061.22 2.561.542 3.333.717 3.208.724 12.232 2.306 16.14 2.83 8.319 1.115 12.025 1.541 18.071 2.077 2.026.18 5.342.491 7.368.692s6.673.521 10.327.711c4.658.241 6.726.477 6.924.789.155.244.285 22.273.287 48.953l.006 48.509h25.088 25.087v-48.751c0-35.227.108-48.818.388-48.991.214-.132 3.174-.379 6.579-.549 10.221-.511 27.475-2.182 35.577-3.445 1.303-.203 3.355-.514 4.562-.69 1.206-.176 2.982-.481 3.947-.676.965-.196 3.57-.689 5.789-1.096 2.22-.408 4.52-.893 5.113-1.079.593-.185 1.371-.337 1.73-.337.358 0 1.136-.147 1.729-.327s1.749-.496 2.569-.702c4.634-1.164 10.532-2.941 12.894-3.883.386-.154 1.255-.48 1.93-.723 17.041-6.146 21.091-15.029 10.217-22.406-2.928-1.986-9.632-5.293-10.731-5.293-.273 0-.594-.157-.714-.35-.119-.193-.593-.351-1.052-.351-.46 0-.934-.158-1.053-.351s-.525-.351-.903-.351c-.377 0-.96-.145-1.295-.321-1.233-.65-11.581-3.474-15.697-4.283-.965-.189-2.465-.488-3.333-.663-4.222-.854-9.503-1.735-16.667-2.782-2.589-.378-12.852-1.632-17.368-2.123-3.632-.394-4.558-.464-13.684-1.043-3.378-.214-7.088-.502-8.246-.64l-2.105-.25v-15.263-15.264l34.827-.089 34.827-.089-.09-23.069-.091-23.068-94.765-.089c-52.121-.048-94.871.017-95 .146m69.856 97.54.092 16.895 4.119.289c5.306.371 38.151.37 42.625-.001l3.418-.284.091-16.897.091-16.898 4.561.018c4.973.019 10.943.346 15.614.855 1.641.179 4.641.497 6.667.706 11.436 1.183 25.705 3.361 32.281 4.926.868.207 2.21.508 2.982.671 3.332.699 11.39 3.123 11.912 3.584.184.161.535.293.781.293s1.482.474 2.746 1.053 2.452 1.052 2.64 1.052.342.158.342.351.169.351.375.351c1.497 0 5.774 4.044 6.285 5.941 1.095 4.067-2.199 7.339-11.221 11.144-.676.285-1.503.662-1.838.839s-.918.322-1.295.322-.772.139-.877.31c-.106.171-.628.395-1.161.497-.534.103-1.522.346-2.198.541-3.105.893-11.26 2.909-13.158 3.252-1.158.21-2.894.523-3.859.696-6.389 1.146-13.588 2.187-19.123 2.764-1.64.171-4.562.482-6.491.691-35.699 3.869-86.111 2.996-120-2.077-10.977-1.643-16.239-2.743-25.264-5.279-.578-.162-1.447-.398-1.929-.524-.483-.125-1.193-.357-1.579-.514-.386-.158-1.255-.476-1.93-.708-17.094-5.87-17.887-14.656-1.842-20.418.434-.156 1.145-.436 1.579-.623 2.23-.956 11.169-3.463 15.175-4.256.965-.192 2.465-.5 3.334-.687 2.271-.487 6.678-1.235 12.982-2.202 9.253-1.42 17.7-2.34 27.866-3.036 2.879-.197 5.317-.441 5.419-.543.101-.101 2.325-.14 4.941-.087l4.756.097z" fill="#fbfbfb"/><path d="m72.632.526c0 .29-.158.527-.351.527s-.351.552-.351 1.228c0 .675-.158 1.228-.351 1.228s-.351.316-.351.702c0 .385-.158.701-.351.701s-.351.316-.351.702-.158.702-.351.702-.35.217-.35.483-.237.68-.527.92c-.289.241-.526.734-.526 1.096s-.158.659-.351.659-.351.315-.351.701-.158.702-.351.702-.351.404-.351.898c0 .509-.151.804-.35.681s-.351.172-.351.681c0 .494-.158.898-.351.898s-.351.474-.351 1.053-.158 1.052-.351 1.052-.351.316-.351.702-.158.702-.351.702-.351.316-.351.702-.157.701-.35.701-.351.299-.351.665c0 .365-.237.755-.527.866-.289.111-.526.522-.526.914 0 .393-.158.713-.351.713s-.351.316-.351.702-.158.702-.351.702-.35.207-.35.46-.316 1.114-.702 1.913-.702 1.706-.702 2.016c0 .311-.158.467-.351.348-.205-.127-.351.23-.351.856 0 .59-.158 1.073-.351 1.073s-.351.316-.351.702-.157.702-.35.702-.351.378-.351.84c0 .461-.247.934-.549 1.05s-.461.351-.355.524c.107.172-.008.482-.256.687-.248.206-.67.934-.939 1.619s-.617 1.245-.774 1.245-.285.395-.285.877c0 .483-.158.877-.351.877s-.351.316-.351.702-.158.702-.351.702-.351.473-.351 1.052-.158 1.053-.351 1.053-.35.316-.35.702-.158.702-.351.702-.351.377-.351.839-.237.931-.526 1.042c-.29.111-.527.444-.527.739 0 .296-.158.537-.351.537s-.351.206-.351.457c0 .645-.825 2.344-1.14 2.348-.145.001-.263.485-.263 1.076 0 .626-.146.983-.351.856-.193-.119-.351.109-.351.506s-.158.722-.351.722-.351.474-.351 1.053-.157 1.053-.35 1.053-.351.306-.351.681c0 .374-.158.778-.351.898-.193.119-.351.523-.351.897 0 .375-.237.681-.526.681-.29 0-.527.206-.527.457 0 .645-.825 2.344-1.14 2.348-.145.001-.263.309-.263.684 0 .374-.158.778-.351.897-.193.12-.351.524-.351.898 0 .375-.158.681-.351.681s-.351.232-.351.516-.316 1.078-.701 1.765c-.386.687-.702 1.639-.702 2.116s-.158.867-.351.867-.351.315-.351.701c0 .39-.234.702-.526.702-.29 0-.527.205-.527.456 0 .646-.825 2.345-1.14 2.348-.145.002-.263.398-.263.88 0 .483-.158.877-.351.877s-.351.316-.351.702-.158.702-.351.702-.351.205-.351.456c0 .646-.825 2.345-1.14 2.348-.145.002-.263.556-.263 1.231 0 .676-.158 1.228-.351 1.228s-.351.248-.351.552c0 .303-.197.771-.439 1.04-1.131 1.261-1.338 1.597-1.162 1.882.105.168-.045.501-.333.74-.287.238-.523.69-.523 1.005-.001.314-.317 1.088-.702 1.719-.385.632-.701 1.392-.701 1.688s-.157.441-.35.322c-.199-.123-.351.171-.351.681 0 .493-.158.897-.351.897s-.351.474-.351 1.053-.158 1.053-.351 1.053-.351.248-.351.551-.238.79-.529 1.081c-.292.291-.44.675-.331.852.11.178.036.323-.165.323s-.464.394-.585.877c-.121.482-.361.877-.533.877s-.313.316-.313.702-.158.702-.351.702-.351.315-.351.701-.158.702-.351.702-.35.316-.35.702-.158.702-.351.702-.351.394-.351.877c0 .482-.158.877-.351.877s-.351.474-.351 1.053-.158 1.052-.351 1.052-.351.316-.351.702-.158.702-.351.702-.35.316-.35.702-.155.701-.345.701c-.189 0-.443.395-.564.878-.121.482-.361.877-.533.877s-.313.315-.313.701-.158.702-.351.702-.351.316-.351.702-.123.702-.274.702-.484.71-.74 1.579c-.257.868-.616 1.579-.799 1.579-.184 0-.244.145-.134.322.11.178.001.533-.242.79-.243.256-.497.861-.563 1.344-.067.482-.264.93-.439.994s-.317.498-.317.965c0 .483-.185.81-.431.76-.236-.048-.484.268-.55.702-.067.434-.268.789-.447.789-.18 0-.327.316-.327.702s-.158.702-.351.702-.351.306-.351.681c0 .374-.157.778-.35.898-.193.119-.351.532-.351.918s-.158.605-.351.485c-.205-.127-.351.237-.351.877s-.146 1.004-.351.878c-.193-.12-.351.108-.351.505 0 .398-.158.723-.351.723s-.351.473-.351 1.052-.157 1.053-.35 1.053-.351.395-.351.877c0 .515-.182.841-.439.79-.241-.049-.44.195-.442.541-.001.345-.238.777-.526.959s-.4.333-.249.336-.125.722-.614 1.597c-.488.875-.888 1.823-.888 2.105 0 .283-.158.514-.351.514s-.351.316-.351.702-.158.702-.351.702-.351.316-.351.702c0 .385-.158.701-.351.701s-.35.474-.35 1.053-.158 1.053-.351 1.053-.351.377-.351.839-.237.931-.527 1.042c-.289.111-.526.444-.526.739 0 .296-.158.537-.351.537s-.351.316-.351.702-.158.702-.35.702c-.193 0-.351.303-.351.672 0 .37-.164.728-.365.794-.2.067-.458 1.243-.573 2.612l-.209 2.491 4.073 4.084c2.24 2.246 4.235 4.084 4.433 4.084s.32.131.272.291c-.099.33 3.889 4.27 4.322 4.27.154 0 .372.291.485.646s.597.855 1.076 1.112c.479.256.872.676.872.933s.156.467.348.467c.191 0 .77.474 1.286 1.053s1.085 1.052 1.265 1.052.77.474 1.311 1.053 1.157 1.053 1.369 1.053.386.158.386.352c0 .458 9.718 10.174 10.176 10.174.193 0 .35.129.35.288 0 .454 5.856 6.379 6.305 6.379.222 0 .305.157.186.35s.003.351.271.351.696.39.951.866c.254.475.597.782.761.681.164-.102.298-.019.298.182 0 .495 2.519 2.811 3.07 2.823.241.005.439.141.439.301 0 .161.394.503.877.761.482.259.877.612.877.785 0 .407 5.234 5.531 5.65 5.531.173 0 .315.15.315.334 0 .436 5.195 5.631 5.631 5.631.183 0 .334.128.334.284 0 .431 4.505 4.979 4.932 4.979.205 0 .275.158.155.351-.119.193-.008.351.247.351s.778.428 1.161.95c1.218 1.66 4.774 5.015 5.315 5.015.511 0 1.523.803 1.523 1.209 0 .271 4.485 4.756 4.755 4.756s1.21.941 1.21 1.21c0 .374 3.834 4.053 4.224 4.053.208 0 .281.158.162.351s-.038.351.18.351c.392 0 1.399.844 1.399 1.173 0 .347 2.457 2.686 2.821 2.686.208 0 .295.134.194.298s.2.504.669.755.77.591.669.755-.012.298.199.298c.487 0 2.816 2.312 2.816 2.795 0 .199.252.363.559.363.308 0 .642.315.743.701s.339.702.528.702c.19 0 .787.474 1.328 1.053s1.236 1.052 1.544 1.052c.309 0 .561.142.561.316 0 .35 2.569 2.962 5.038 5.123.882.772 1.615 1.561 1.629 1.754s.741.983 1.615 1.755c2.512 2.219 4.35 3.966 4.35 4.137 0 .194 3.197 3.407 3.391 3.407.311 0 2.574 2.457 2.574 2.795 0 .199.171.362.38.362.208 0 1.129.791 2.045 1.756.916.966 1.772 1.65 1.901 1.521.129-.13.235.028.235.349 0 .322.264.585.585.585.322 0 .493.092.38.205-.242.242.81 1.549 1.246 1.549.165 0 .926.632 1.69 1.404s1.468 1.403 1.563 1.403c.24 0 2.607 2.387 2.607 2.629 0 .27 3.086 3.336 3.357 3.336.302 0 4.702 4.674 4.708 5 .003.145.167.263.365.263.481 0 3.499 3.037 3.499 3.521 0 .209.158.283.351.164.193-.12.351.002.351.271 0 .268.395.699.877.957.483.258.878.61.878.781 0 .172.157.215.35.096s.351-.005.351.254c0 .26.442.733.982 1.052.54.318 1.198.984 1.463 1.479.264.494.7.899.969.899.268 0 .397.147.286.326s.081.415.427.525c.825.262 5.347 4.574 5.347 5.099 0 .224.134.324.298.223s.506.205.761.681.592.865.75.865c.383 0 6.261 5.972 6.261 6.362 0 .168.161.305.359.305.389 0 4.203 3.697 4.203 4.074 0 .387 1.9 1.89 2.389 1.891.252 0 .361.158.242.351s.039.351.351.351.5.118.418.263c-.198.346 1.378 1.859 1.652 1.585.116-.116.211.062.211.395s.158.508.351.388c.193-.119.35-.037.35.182 0 .517 1.932 2.45 2.449 2.45.424 0 3.927 3.459 5.091 5.026.383.516.821.939.972.939.409 0 4.12 3.786 4.12 4.203 0 .197.226.358.503.358.276 0 .603.316.725.702.123.386.398.702.612.702.498 0 4.827 4.379 4.827 4.883 0 .209.161.38.357.38.197 0 1.357.987 2.578 2.193s2.551 2.418 2.955 2.694c.404.275.705.67.668.877s.144.332.402.278c.258-.053.548.206.645.577.179.687 1.414 1.1 3.287 1.1.979 0 4.127-2.578 3.932-3.219-.048-.159.077-.29.277-.29.201 0 2.644-2.289 5.431-5.087 2.786-2.799 5.16-5.088 5.274-5.088.351 0 1.211-.979 1.211-1.378 0-.207.241-.376.536-.376.54 0 2.848-2.146 4.266-3.966.422-.541.895-.991 1.052-1 .158-.009.246-.163.196-.342s.171-.426.491-.549 2.853-2.487 5.628-5.254c2.776-2.766 5.132-5.03 5.236-5.03.27 0 1.192-.957 1.192-1.237 0-.319 6.07-6.131 6.403-6.131.145 0 .263-.237.263-.526 0-.466.131-.543.883-.522.368.01 2.522-2.295 2.381-2.549-.081-.144.024-.263.233-.263s1.71-1.342 3.336-2.982c1.625-1.641 3.05-2.983 3.165-2.983.293 0 1.932-1.668 1.932-1.966 0-.246 3.762-3.999 4.008-3.999.178 0 2.659-2.488 2.659-2.666 0-.273 7.206-7.242 8.245-7.975.579-.408 2.516-2.207 4.304-3.998 1.788-1.79 3.433-3.255 3.655-3.255s.316-.089.207-.197c-.239-.239 1.38-1.909 1.85-1.909.185 0 .341-.197.347-.438s.9-1.228 1.986-2.193c1.087-.965 2.542-2.369 3.235-3.119 1.489-1.614 3.574-3.68 5.793-5.74.883-.82 1.606-1.582 1.606-1.692 0-.354.988-1.204 1.4-1.204.527 0 5.27-4.792 5.005-5.057-.114-.113.022-.206.301-.206s.735-.316 1.013-.702c.278-.385.708-.701.955-.701s.449-.127.449-.283c0-.26 3.168-3.532 7.257-7.495.93-.901 2.268-2.243 2.974-2.983.706-.739 2.16-2.134 3.23-3.099s1.953-1.884 1.962-2.043c.025-.466.978-1.29 1.492-1.29.26 0 .701-.316.979-.702.279-.386.708-.702.955-.702s.449-.263.449-.585c0-.321.098-.487.217-.367.272.272 1.187-.614 1.187-1.149 0-.218.157-.299.35-.179.193.119.351.06.351-.131 0-.331.637-.981 4.825-4.929 1.013-.956 1.842-1.833 1.842-1.951 0-.27 1.653-1.937 1.921-1.937.11 0 1.064-.865 2.122-1.922 1.057-1.057 1.922-2.012 1.922-2.121 0-.259 1.662-1.922 1.92-1.922.264 0 4.747-4.491 4.747-4.755 0-.479 1.057-1.21 1.75-1.21.411 0 .649-.158.53-.351s-.038-.35.18-.35c.401 0 1.649-1.083 1.487-1.291-.048-.062.031-.141.175-.176.389-.092 1.14-.895 1.148-1.228.004-.158.573-.762 1.263-1.341 2.411-2.021 3.993-3.632 3.993-4.066 0-.24.098-.339.217-.219.272.272 1.186-.614 1.186-1.149 0-.218.158-.299.351-.18.193.12.351-.029.351-.33s.246-.547.547-.547.45-.158.33-.351c-.119-.193-.054-.35.145-.35s1.388-1.066 2.642-2.369c1.255-1.303 2.404-2.485 2.554-2.627 2.765-2.622 5.332-5.233 5.883-5.984.383-.523.897-.95 1.14-.95.244 0 .443-.158.443-.351s.167-.351.37-.351c.204 0 .875-.473 1.491-1.051.617-.578 1.24-1.052 1.385-1.053s.263-.247.263-.548.158-.45.351-.331c.193.12.351.09.351-.067.001-.36 1.583-2.213 1.89-2.213.328 0 4.075-3.789 4.075-4.12 0-.151.423-.589.94-.972 1.512-1.121 5.726-5.367 5.726-5.768 0-.203.163-.368.362-.368.2 0 2.165-1.816 4.368-4.035 2.203-2.22 4.132-4.04 4.287-4.045.439-.015 2.913-2.412 2.913-2.823 0-.202.119-.304.263-.226.145.077.54-.151.878-.506.337-.355.523-.646.411-.646-.111 0 .303-.425.92-.944 1.152-.969 1.41-4.604.352-4.957-.202-.067-.373-.386-.379-.707-.006-.322-.238-.885-.515-1.251s-.421-.8-.319-.965c.102-.164.018-.299-.187-.299-.204 0-.371-.242-.371-.537 0-.296-.237-.628-.526-.739-.328-.126-.527-.661-.527-1.414 0-.718-.143-1.123-.351-.994-.193.119-.351-.099-.351-.485s-.157-.799-.35-.919c-.193-.119-.351-.523-.351-.897 0-.375-.158-.681-.351-.681s-.351-.316-.351-.702-.158-.702-.351-.702-.351-.306-.351-.681-.158-.779-.351-.898-.351-.523-.351-.898c0-.374-.157-.681-.35-.681s-.351-.316-.351-.702-.158-.701-.351-.701-.351-.242-.351-.538c0-.295-.237-.628-.526-.739-.29-.111-.527-.58-.527-1.042 0-.461-.158-.839-.351-.839s-.35-.474-.35-1.053-.158-1.053-.351-1.053-.351-.315-.351-.701-.158-.702-.351-.702-.351-.316-.351-.702-.158-.702-.351-.702-.351-.394-.351-.877c0-.482-.119-.877-.265-.877-.306 0-1.334-2.15-1.217-2.544.044-.145-.079-.263-.272-.263s-.351-.316-.351-.702c0-.39-.234-.701-.526-.701-.328 0-.527-.332-.527-.878 0-.482-.157-.877-.35-.877s-.351-.474-.351-1.052c0-.579-.158-1.053-.351-1.053s-.351-.325-.351-.723c0-.397-.158-.624-.351-.505-.199.123-.351-.172-.351-.681 0-.494-.158-.898-.351-.898s-.351-.307-.351-.681c0-.375-.158-.779-.35-.898-.193-.119-.351-.523-.351-.898s-.158-.681-.351-.681-.351-.316-.351-.702-.141-.702-.313-.702-.412-.394-.533-.877c-.121-.482-.375-.877-.564-.877-.19 0-.345-.303-.345-.672 0-.37-.142-.726-.317-.79-.174-.064-.372-.512-.439-.994-.066-.483-.32-1.087-.563-1.344s-.36-.599-.26-.76c.099-.161.014-.348-.188-.415-.203-.068-.396-.476-.428-.907-.033-.432-.183-.785-.335-.785s-.277-.315-.277-.701-.157-.702-.35-.702-.351-.316-.351-.702-.158-.702-.351-.702-.351-.315-.351-.701-.158-.702-.351-.702-.351-.321-.351-.713-.236-.803-.524-.914-.445-.33-.348-.487-.061-.524-.353-.815c-.291-.291-.529-.778-.529-1.081s-.158-.552-.351-.552-.351-.473-.351-1.052-.158-1.053-.351-1.053-.351-.395-.351-.877-.158-.877-.351-.877-.35-.316-.35-.702-.158-.702-.351-.702-.351-.315-.351-.701-.158-.702-.351-.702-.351-.303-.351-.673-.166-.728-.37-.796c-.203-.067-.414-.357-.468-.643-.167-.883-1.013-2.45-1.324-2.45-.162 0-.294-.315-.294-.701s-.158-.702-.351-.702-.351-.464-.351-1.032-.158-1.13-.351-1.249-.351-.523-.351-.898c0-.374-.119-.681-.265-.681-.306 0-1.334-2.15-1.216-2.544.043-.144-.08-.263-.273-.263s-.351-.232-.351-.515c0-.284-.316-1.078-.702-1.765-.386-.688-.701-1.482-.701-1.766 0-.283-.237-.515-.527-.515-.292 0-.526-.312-.526-.702 0-.386-.158-.702-.351-.702s-.351-.562-.351-1.248c0-.744-.142-1.161-.351-1.032-.193.119-.351-.099-.351-.485s-.157-.8-.35-.919-.351-.523-.351-.898c0-.374-.158-.681-.351-.681s-.351-.316-.351-.702-.158-.701-.351-.701-.351-.395-.351-.878c0-.482-.118-.878-.263-.879-.315-.004-1.14-1.703-1.14-2.348 0-.251-.237-.457-.527-.457-.292 0-.526-.312-.526-.702 0-.385-.158-.701-.351-.701s-.351-.553-.351-1.228c0-.676-.118-1.23-.263-1.231-.315-.003-1.14-1.703-1.14-2.348 0-.251-.158-.456-.351-.456s-.351-.307-.351-.681c0-.375-.158-.779-.351-.898-.193-.12-.351-.524-.351-.898 0-.375-.158-.681-.351-.681s-.35-.316-.35-.702-.158-.702-.351-.702-.351-.242-.351-.537c0-.296-.237-.628-.527-.739-.289-.112-.526-.418-.526-.681 0-.262-.316-1.04-.702-1.727s-.701-1.639-.701-2.116-.158-.866-.351-.866-.351-.316-.351-.702-.158-.702-.351-.702-.351-.231-.351-.514c0-.282-.388-1.21-.863-2.06-.475-.851-.765-1.646-.644-1.767.122-.121.036-.22-.189-.22s-.409-.242-.409-.538c0-.295-.237-.628-.526-.739-.29-.111-.527-.58-.527-1.042 0-.461-.158-.839-.351-.839s-.35-.316-.35-.702-.158-.702-.351-.702-.351-.473-.351-1.052-.158-1.053-.351-1.053-.351-.316-.351-.702-.158-.702-.351-.702-.351-.381-.351-.848c0-.466-.118-.9-.263-.964-.379-.169-1.842-3.075-1.842-3.659 0-.272-.237-.493-.526-.493-.328 0-.527-.332-.527-.878 0-.482-.158-.877-.351-.877s-.35-.316-.35-.702-.158-.701-.351-.701-.351-.483-.351-1.074c0-.626-.146-.983-.351-.856-.193.119-.351-.037-.351-.347 0-.311-.316-1.218-.702-2.017s-.701-1.659-.701-1.913c0-.253-.119-.461-.264-.463-.315-.003-1.14-1.702-1.14-2.348 0-.251-.155-.456-.344-.456s-.443-.395-.564-.877c-.122-.483-.361-.877-.533-.877-.173 0-.313-.316-.313-.702s-.158-.702-.351-.702-.351-.316-.351-.702-.158-.701-.351-.701-.351-.474-.351-1.053-.158-1.053-.351-1.053-.351-.404-.351-.898c0-.509-.151-.804-.35-.681-.193.12-.351.05-.351-.154 0-.261-37.854-.372-127.018-.372-112.67 0-127.017.059-127.017.526m225.529 70.527c.085 21.789.048 23.54-.505 23.947-.468.344-8.048.439-35.091.439h-34.495v14.695 14.694l5.526.22c8.001.319 18.749 1.153 24.825 1.927 1.351.172 4.114.502 6.14.735 2.027.232 4 .559 4.386.726.386.168 1.571.384 2.632.481 2.738.251 5.339.66 12.368 1.946 5.607 1.026 9.97 2 13.421 2.995 1.158.334 2.542.686 3.075.783s1.055.316 1.161.487c.105.171.647.311 1.203.311s1.109.157 1.228.35.605.351 1.078.351c.474 0 1.175.158 1.558.351.384.193 1.011.509 1.394.702.384.193.939.351 1.233.351.295 0 .81.144 1.145.321s1.241.593 2.013.925c3.405 1.463 8.065 3.833 8.597 4.37.096.097.728.592 1.403 1.098 9.331 6.995 5.447 15.994-9.386 21.751-.434.169-1.224.486-1.754.705-.531.218-1.281.525-1.667.681-1.072.433-7.878 2.625-9.561 3.079-.82.222-2.163.572-2.983.778s-1.976.522-2.569.702c-.592.18-1.468.327-1.947.327-.478 0-1.02.141-1.203.315-.183.173-.965.402-1.737.508-1.426.197-2.706.437-7.719 1.447-11.528 2.322-30.573 4.54-42.456 4.943-2.702.091-5.228.32-5.614.507s-1.807.382-3.158.433l-2.456.092-.176 48.772-.175 48.772-25.241.09c-19.961.071-25.3-.002-25.521-.351-.154-.242-.283-22.258-.286-48.924l-.005-48.483-3.07-.203c-1.689-.113-5.36-.293-8.158-.401s-5.238-.344-5.421-.524-2.007-.327-4.053-.327c-2.045 0-3.869-.143-4.052-.319-.184-.176-1.755-.409-3.492-.518-6.329-.399-17.433-1.938-25.614-3.55-1.543-.305-3.481-.647-4.306-.761-.824-.114-1.584-.345-1.687-.512-.104-.168-.88-.305-1.726-.305-.845 0-1.625-.141-1.731-.313-.107-.173-.787-.397-1.512-.498s-2.029-.366-2.897-.589c-.869-.222-2.094-.49-2.723-.593-.629-.104-1.23-.33-1.336-.501-.106-.172-.507-.313-.89-.313-.873 0-6.337-1.728-6.788-2.146-.183-.17-.62-.31-.97-.31s-.91-.139-1.245-.31c-.335-.17-1.004-.47-1.487-.666-3.714-1.507-5.947-2.563-7.924-3.746-3.927-2.35-6.686-4.952-7.829-7.384-.775-1.649-1.013-4.876-.387-5.262.193-.119.351-.468.351-.774 0-2.457 7.687-8.107 14.912-10.96.386-.153 1.097-.446 1.579-.652s1.509-.562 2.281-.792c.772-.229 1.677-.556 2.012-.725.336-.169.851-.308 1.146-.308.294 0 .81-.142 1.145-.316.335-.175 1.319-.501 2.188-.726.868-.225 2.289-.633 3.158-.905 2.912-.914 8.334-2.179 10.702-2.497.771-.104 1.553-.331 1.736-.504.184-.173 1.06-.315 1.948-.315.887 0 1.764-.143 1.947-.318.312-.299 1.335-.457 6.123-.949 1.061-.109 2.08-.342 2.263-.518s1.112-.32 2.065-.32c.952 0 2.302-.147 3-.327 4.246-1.094 23.323-2.936 35.216-3.401l5.526-.216v-14.694-14.695h-34.699c-31.318 0-34.72-.054-34.912-.555-.293-.762-.272-46.99.021-47.282.129-.129 43.116-.195 95.526-.146l95.292.088zm-124.198 58.259c-.104.103-3.169.354-6.813.557-8.078.449-16.577 1.184-23.115 1.999-3.554.443-12.49 1.765-17.105 2.531-1.206.2-2.904.452-3.772.56-.869.108-1.729.339-1.912.514-.184.174-1.003.316-1.822.316-.818 0-1.585.158-1.705.351-.119.193-.751.351-1.403.351-.653 0-1.284.158-1.404.351-.119.193-.674.351-1.232.351s-1.378.139-1.821.31c-.444.17-2.701.899-5.017 1.619-4.214 1.312-5.434 1.742-6.574 2.322-.335.171-.848.31-1.14.31-.293 0-.532.12-.532.266 0 .145-.513.489-1.14.763-4.823 2.106-7.733 5.588-7.095 8.491.494 2.248 8.554 8.024 11.197 8.024.301 0 .547.158.547.351s.386.351.857.351.954.158 1.073.351.593.351 1.053.351c.459 0 .933.158 1.052.351.12.193.672.351 1.228.351.557 0 1.098.14 1.205.312.106.171.707.39 1.336.487 1.26.192 9.634 2.208 11.344 2.731.593.181 1.627.329 2.298.329.672 0 1.371.143 1.554.319.184.175 1.123.406 2.088.514.965.107 2.86.363 4.211.568 3.931.596 6.794.988 10.175 1.393 7.009.84 19.744 2.053 26.667 2.54 6.949.489 61.486.493 68.421.006 9.494-.668 23.321-2.072 32.105-3.26 1.447-.196 3.5-.435 4.561-.532 1.062-.097 2.246-.315 2.632-.485.386-.171 1.412-.4 2.281-.51 2.706-.343 7.205-1.248 10.526-2.115 3.779-.988 5.033-1.286 6.231-1.484.629-.104 1.231-.33 1.337-.501.106-.172.648-.312 1.204-.312s1.109-.158 1.228-.351.593-.351 1.053-.351c.459 0 .933-.158 1.052-.351s.446-.351.726-.351c.844 0 8.281-3.523 8.923-4.227.097-.106.688-.551 1.315-.988 2.506-1.751 3.377-4.397 2.202-6.698-.841-1.651-5.779-5.631-6.985-5.631-.28 0-1.569-.582-3.983-1.798-.335-.169-.896-.307-1.246-.307s-.786-.131-.969-.29c-.184-.159-1.044-.492-1.913-.738-.868-.247-2.21-.648-2.982-.893-.772-.244-2.114-.633-2.983-.864-.868-.232-2.063-.568-2.656-.748s-1.548-.327-2.123-.327-1.195-.141-1.378-.315c-.184-.173-.965-.402-1.737-.508-.772-.107-2.193-.345-3.158-.529-.965-.185-2.386-.435-3.158-.558-.772-.122-2.193-.365-3.158-.54s-2.86-.482-4.21-.682c-1.351-.201-3.562-.541-4.913-.756-3.951-.628-7.854-1.065-11.052-1.236-1.641-.088-3.299-.307-3.685-.486s-2.28-.404-4.21-.5c-8.298-.414-15.241-.854-17.277-1.097l-2.19-.26-.091 17.153-.091 17.153-4.913.446c-8.395.763-44.96.214-46.052-.692-.34-.281-.439-4.15-.439-17.162v-16.799h-1.169c-.644 0-1.255.085-1.359.189" fill="#54ac94"/><path d="m107.183 71.228c0 12.833.044 18.083.098 11.667.053-6.417.053-16.917 0-23.334-.054-6.416-.098-1.166-.098 11.667m66.94 53.936c.531.08 1.399.08 1.93 0 .53-.081.096-.147-.965-.147-1.062 0-1.496.066-.965.147m55.092 0c.534.081 1.323.079 1.755-.005.431-.083-.005-.149-.97-.146-.965.002-1.318.07-.785.151m-60.878.347c.437.084 1.068.081 1.404-.007.335-.088-.022-.156-.794-.152s-1.046.075-.61.159m67.369 0c.436.084 1.068.081 1.403-.007.336-.088-.021-.156-.793-.152s-1.047.075-.61.159m-72.632.351c.437.084 1.068.081 1.404-.007.335-.088-.022-.156-.794-.152-.772.003-1.046.075-.61.159m77.544 0c.437.084 1.068.081 1.404-.007.335-.088-.022-.156-.794-.152-.772.003-1.046.075-.61.159m5.084.345c.337.088.89.088 1.228 0s.061-.161-.614-.161c-.676 0-.952.073-.614.161m-70.877 2.807c.337.088.89.088 1.228 0 .337-.088.061-.161-.614-.161-.676 0-.952.073-.614.161m54.035 0c.337.088.89.088 1.228 0 .337-.088.061-.161-.614-.161-.676 0-.952.073-.614.161m-51.856 16.775c0 9.264.046 13.003.101 8.31.055-4.694.055-12.273 0-16.843s-.101-.73-.101 8.533m-11.999-16.064c.533.081 1.323.079 1.754-.004.432-.084-.005-.15-.97-.147-.964.003-1.318.071-.784.151m73.504-.004c.434.084 1.145.084 1.579 0 .434-.083.079-.152-.79-.152-.868 0-1.223.069-.789.152m-82.632.696c.338.089.891.089 1.228 0 .338-.088.062-.16-.614-.16-.675 0-.952.072-.614.16m91.93 0c.338.089.89.089 1.228 0 .338-.088.061-.16-.614-.16s-.952.072-.614.16m-157.901 19.758c0 .676.072.952.16.614.089-.337.089-.89 0-1.228-.088-.337-.16-.061-.16.614m237.212 2.281c.003.965.071 1.318.151.785.081-.534.079-1.323-.004-1.755-.084-.431-.15.005-.147.97m-144.399 10.956c.627.078 1.654.078 2.281 0s.114-.142-1.14-.142c-1.255 0-1.768.064-1.141.142m38.772-.003c.531.081 1.399.081 1.93 0 .531-.08.097-.146-.965-.146-1.061 0-1.495.066-.965.146m-33.859.357c.82.074 2.162.074 2.982 0s.149-.135-1.491-.135c-1.641 0-2.312.061-1.491.135m28.079 0c.825.074 2.088.073 2.807-.002.719-.076.043-.136-1.5-.135-1.544.001-2.132.063-1.307.137m-58.781 6.3c.338.089.89.089 1.228 0 .338-.088.061-.16-.614-.16-.676 0-.952.072-.614.16m2.807.351c.338.089.89.089 1.228 0 .338-.088.061-.16-.614-.16-.676 0-.952.072-.614.16m84.561 0c.338.089.891.089 1.228 0 .338-.088.062-.16-.614-.16-.675 0-.951.072-.614.16m-73.859.708c.434.083 1.144.083 1.579 0 .434-.084.078-.152-.79-.152s-1.224.068-.789.152m62.807 0c.434.083 1.144.083 1.579 0 .434-.084.079-.152-.79-.152-.868 0-1.224.068-.789.152m-54.035.357c.627.078 1.653.078 2.28 0s.114-.142-1.14-.142c-1.255 0-1.768.064-1.14.142m45.087-.003c.531.081 1.399.081 1.93 0 .531-.08.097-.146-.965-.146-1.061 0-1.495.066-.965.146m-68.07 7.359c.338.089.89.089 1.228 0 .338-.088.062-.16-.614-.16-.675 0-.952.072-.614.16m91.228 0c.338.089.89.089 1.228 0 .338-.088.062-.16-.614-.16-.675 0-.952.072-.614.16m-82.281.708c.435.084 1.145.084 1.579 0 .435-.084.079-.152-.789-.152-.869 0-1.224.068-.79.152m72.632 0c.434.084 1.145.084 1.579 0s.079-.152-.79-.152c-.868 0-1.223.068-.789.152m-65.614.351c.434.083 1.145.083 1.579 0 .434-.084.079-.152-.79-.152-.868 0-1.223.068-.789.152m58.772.003c.531.081 1.399.081 1.93 0 .53-.08.096-.146-.965-.146-1.062 0-1.496.066-.965.146" fill="#9accbc"/><path d="m107.248 47.631c-.09.145 42.769.224 95.242.175l95.405-.089v23.51 23.51h-34.716c-22.766 0-34.791.121-34.933.351-.349.564 68.642.476 69.41-.088.553-.407.59-2.158.505-23.947l-.091-23.509-95.33-.088c-52.431-.049-95.403.03-95.492.175m.027 47.369c.133.347 7.431.439 34.864.439h34.695l.098 14.824.097 14.825-.006-15.088-.005-15.088-34.956-.175c-27.877-.14-34.921-.087-34.787.263m58.865 30.266c-.772.14.492.175 2.807.077 2.316-.097 4.277-.234 4.357-.304.26-.225-5.714-.035-7.164.227m65.468-.227c.081.07 2.041.206 4.357.303 2.582.108 3.6.069 2.631-.101-1.579-.277-7.264-.441-6.988-.202m-74.766.927c-.675.143.272.179 2.105.08 1.834-.098 3.399-.236 3.48-.305.262-.227-4.322-.042-5.585.225m85.643-.225c.081.07 1.647.206 3.48.301s2.86.057 2.281-.086c-1.069-.263-6.028-.448-5.761-.215m-93.187.92c-.579.144.369.183 2.106.085 1.736-.097 3.223-.234 3.304-.303.269-.234-4.343-.048-5.41.218m100.556-.219c.08.07 1.725.209 3.655.309 2.278.118 3.016.081 2.105-.106-1.384-.285-6.044-.448-5.76-.203m-104.672.83c.63.078 1.578.076 2.105-.004s.011-.144-1.147-.142-1.589.068-.958.146m112.805-.003c.534.081 1.323.079 1.755-.004.431-.084-.005-.15-.97-.147s-1.318.071-.785.151m-117.285.45c-.932.196-1.017.265-.351.285.482.014 1.509-.105 2.281-.265 1.17-.242 1.228-.289.35-.284-.578.003-1.605.122-2.28.264m123.074.248c.436.084 1.068.081 1.404-.007.335-.087-.022-.156-.794-.152s-1.046.076-.61.159m-127.811.47c-.489.222-.277.254.702.105.772-.118 1.469-.272 1.549-.343.302-.266-1.578-.067-2.251.238m131.082-.241c.413.357 2.113.569 1.909.239-.124-.201-.637-.365-1.14-.365-.504 0-.85.057-.769.126m-135.991.922c-.134.215.221.262.944.125 1.551-.296 1.685-.471.36-.471-.6 0-1.187.155-1.304.346m141.4.005c1.049.451 1.926.451 1.228 0-.289-.187-.842-.332-1.228-.321l-.702.019zm-103.509.351-1.754.24 1.579.021c.868.011 2.447-.1 3.509-.247l1.93-.266-1.755.005c-.965.003-2.544.114-3.509.247m7.625 16.36c-.092 19.261-.356 17.781 3.134 17.584l2.224-.125-2.369-.067c-1.302-.038-2.404-.108-2.447-.156-.044-.048-.165-7.745-.27-17.105l-.191-17.018zm55.884-16.364c1.804.301 5.67.459 5.409.221-.08-.073-1.725-.219-3.654-.324-2.483-.134-2.996-.104-1.755.103m-105.789.355c-.671.433.051.433 1.403 0l.877-.281-.877-.03c-.482-.016-1.114.123-1.403.311m150.175 0c1.352.433 2.074.433 1.404 0-.29-.188-.921-.327-1.404-.311l-.877.03zm-118.07.35-1.404.252 1.404.008c.772.005 1.877-.112 2.456-.26l1.053-.267-1.053.008c-.579.004-1.684.121-2.456.259m84.912 0c.579.148 1.684.267 2.456.266l1.404-.003-1.579-.28c-2.143-.382-3.799-.369-2.281.017m-121.061.365c-.148.24.116.283.769.126 1.344-.322 1.471-.491.371-.491-.503 0-1.016.165-1.14.365m157.757-.238c.081.069.62.232 1.199.361.769.172.911.139.526-.121-.474-.32-2.077-.544-1.725-.24m-129.503.575-1.228.259 1.579.041c.868.022 1.816-.113 2.105-.3.634-.409-.512-.409-2.456 0m100.861-.027c.128.208.961.378 1.85.378 1.996 0 1.859-.183-.38-.508-1.184-.172-1.633-.132-1.47.13m-132.963.373c-.133.216.221.263.944.125 1.552-.296 1.686-.471.36-.471-.6 0-1.186.156-1.304.346m165.962.005c1.049.451 1.925.451 1.228 0-.29-.187-.842-.331-1.228-.321l-.702.02zm-140.351.351-1.404.251 1.404.025c.772.014 1.719-.11 2.105-.276l.702-.302-.702.026c-.386.013-1.333.138-2.105.276m114.21 0c.29.187 1.079.324 1.755.304l1.228-.036-1.053-.268c-1.645-.419-2.577-.419-1.93 0m-143.157.346c-.359.229-.079.267.877.121 1.734-.266 2.03-.469.672-.462-.563.003-1.26.157-1.549.341m171.959-.221c.08.069.698.226 1.374.35.864.159 1.072.123.702-.119-.476-.312-2.424-.529-2.076-.231m-148.275.577c-.939.239-.958.268-.176.268.483 0 1.351-.121 1.93-.268.939-.239.958-.268.176-.268-.483 0-1.351.12-1.93.268m125.263.02c1.777.367 3.214.351 1.754-.02-.579-.148-1.526-.269-2.105-.269-.885-.001-.829.045.351.289m-152.105.326c-.359.229-.079.267.877.12 1.734-.265 2.03-.468.672-.461-.562.003-1.26.156-1.549.341m177.924-.221c.08.07.777.223 1.549.341.956.147 1.236.109.878-.12-.48-.306-2.768-.514-2.427-.221m-154.85.474c.436.084 1.068.08 1.403-.007.336-.088-.021-.157-.793-.153s-1.046.076-.61.16m132.627-.001c.435.084 1.145.084 1.579 0 .435-.083.079-.152-.789-.152s-1.224.069-.79.152m-136.403.454-1.579.246 1.404.018c.771.009 1.798-.109 2.28-.264 1.108-.355.178-.355-2.105 0m139.649-.006c.867.284 3.763.476 3.48.231-.081-.07-1.094-.215-2.252-.323-1.308-.122-1.773-.087-1.228.092m23.684.19c2.212.614 2.834.61 1.228-.008-.675-.26-1.622-.475-2.105-.476-.508-.002-.138.202.877.484m-186.842.167c-.705.226-.739.283-.175.291.386.006 1.017-.125 1.403-.291.894-.384-.028-.384-1.228 0m19.298.351-1.228.259 1.228.04c.676.023 1.465-.112 1.755-.299.638-.412.204-.412-1.755 0m148.246-.018c.667.304 3.261.513 2.953.238-.08-.071-.935-.226-1.9-.344-1.181-.143-1.525-.109-1.053.106m-151.93.72c-.971.247-.984.27-.175.304.482.02 1.114-.117 1.403-.304.597-.386.289-.386-1.228 0m156.141-.017c.673.306 2.552.505 2.251.239-.08-.071-.778-.225-1.55-.343-.978-.149-1.191-.117-.701.104m-159.825.719-.877.281.944.034c.519.02 1.042-.122 1.161-.315.247-.399.017-.399-1.228 0m163.509 0c.289.187.921.326 1.403.31l.877-.029-.877-.281c-1.352-.434-2.073-.434-1.403 0m3.333.701c.119.193.563.34.986.327.741-.024.743-.036.067-.327-.966-.415-1.309-.415-1.053 0m18.597.351c.965.415 1.309.415 1.052 0-.119-.193-.563-.34-.985-.326-.742.024-.744.035-.067.326m-200.611 2.909c-1.108.398-1.949.789-1.869.869.137.137 4.411-1.257 4.731-1.542.352-.314-1.005.005-2.862.673m-14.916.421c-.627.273-1.14.579-1.14.681 0 .217 1.777-.505 2.263-.92.461-.392.206-.338-1.123.239m4.228 4.431c-1.778 1.248-3.968 3.735-3.957 4.495.005.303.255.051.556-.56.625-1.266 2.167-2.749 4.086-3.927 1.261-.775 1.616-1.137 1.052-1.072-.145.017-.926.496-1.737 1.064m229.394 1.372c1.268 1.249 2.574 2.665 2.903 3.148.575.846.577.837.044-.281-.573-1.201-2.374-3.082-4.2-4.386-.579-.413-.015.27 1.253 1.519m-242.238-.525c-.541.476-.845.866-.675.866s.68-.395 1.133-.877c1.049-1.117.817-1.111-.458.011m231.38 1.043c1.107 1.261 1.743 2.439 2.086 3.858.206.855.261.902.29.249.049-1.1-1.091-3.224-2.299-4.283l-.999-.876zm-235.249 4.267c-.498.498-.207 3.691.466 5.123.681 1.449 3.139 4.576 3.153 4.01.004-.155-.467-.786-1.046-1.403-1.727-1.84-2.554-3.968-2.377-6.109.085-1.02.128-1.855.096-1.855s-.163.106-.292.234m236.53 1.894c-.325.567-.466 1.03-.313 1.03.289 0 1.202-1.762 1.012-1.952-.059-.059-.374.356-.699.922m13.466-.022c-.035.675-.145 1.623-.245 2.105l-.18.877.377-.865c.208-.476.318-1.423.245-2.105l-.134-1.24zm-236.635.531c.42.779 2.142 2.477 2.281 2.248.049-.081-.529-.777-1.284-1.546-.755-.77-1.203-1.086-.997-.702m220.29 2.476c-.372.272-.608.562-.526.645.083.082.455-.072.826-.344.372-.272.608-.562.526-.644-.083-.083-.455.072-.826.343m-215.99 1.223c.88.601 3.818 2.086 4.111 2.078.151-.005-.744-.557-1.99-1.229-2.196-1.183-3.196-1.583-2.121-.849m212.911.644c-2.28 1.299-2.591 1.723-.455.621 2.06-1.064 2.946-1.638 2.456-1.593-.193.018-1.093.456-2.001.972m-200.455 4.599c.966.415 1.309.415 1.052 0-.119-.193-.562-.339-.985-.326-.741.024-.744.036-.067.326m188.772 0c-.257.415.087.415 1.052 0 .677-.29.675-.302-.067-.326-.422-.013-.866.133-.985.326m-186.316.702c1.049.451 1.926.451 1.228 0-.289-.187-.842-.331-1.228-.321l-.702.02zm183.684.016c-.384.26-.242.293.527.121 1.29-.289 1.57-.49.672-.482-.37.003-.909.165-1.199.361m-208.421.102c0 .238 2.521 1.689 2.672 1.538.07-.07-.502-.482-1.272-.914-.77-.433-1.4-.713-1.4-.624m140.702.584-1.93.236 1.821.058c1.002.031 1.919-.101 2.039-.294.119-.193.168-.325.108-.294-.059.032-.977.164-2.038.294m64.912.005c-.37.243-.162.278.702.119 1.513-.277 1.799-.477.672-.47-.466.003-1.084.161-1.374.351m25.88.788c-.723.403-1.255.791-1.182.864.115.115 2.594-1.144 2.992-1.519.393-.37-.641.004-1.81.655m-132.196-.045c2.969.289 33.874.289 36.843 0 1.254-.122-7.036-.222-18.422-.222s-19.675.1-18.421.222m-67.543.305c.386.165.938.301 1.228.301.331 0 .267-.111-.176-.301-.386-.166-.938-.302-1.228-.302-.332 0-.267.111.176.302m169.824 0c-.442.19-.507.301-.175.301.289 0 .842-.136 1.228-.301.442-.191.507-.302.175-.302-.289 0-.842.136-1.228.302m-166.491.701c.289.187.763.34 1.053.34.467 0 .467-.037 0-.34-.29-.187-.764-.34-1.053-.34-.468 0-.468.038 0 .34m163.158 0c-.468.303-.468.34 0 .34.289 0 .763-.153 1.052-.34.468-.302.468-.34 0-.34-.289 0-.763.153-1.052.34m-160.322.477c.414.357 2.114.569 1.909.239-.124-.201-.637-.365-1.14-.365s-.849.057-.769.126m156.638.225-.702.302.702.019c.386.01.938-.134 1.228-.321.697-.451-.179-.451-1.228 0m-151.93.702c1.049.451 1.925.451 1.228 0-.29-.187-.842-.332-1.228-.321l-.702.019zm148.061.014c-.148.239.117.283.769.126 1.344-.323 1.472-.491.372-.491-.503 0-1.017.164-1.141.365m-144.699.466c.081.07.778.234 1.55.363 1.006.169 1.254.134.877-.123-.473-.323-2.779-.551-2.427-.24m139.971.24c-.377.257-.128.292.877.123 1.741-.291 2.021-.494.673-.487-.563.003-1.26.167-1.55.364m-135.409.458c.08.07.935.218 1.9.329 1.129.131 1.504.094 1.053-.101-.67-.291-3.258-.49-2.953-.228m130.146.237c-.566.189-.193.222 1.053.093 1.061-.11 1.995-.257 2.076-.328.281-.246-2.26-.055-3.129.235m-125.234.466c.08.069 1.173.212 2.427.317 1.368.115 1.93.078 1.403-.091-.866-.279-4.113-.471-3.83-.226m119.444.229c-.616.16.038.195 1.579.085 1.448-.103 2.698-.244 2.778-.314.27-.234-3.293-.047-4.357.229m-159.298.89c1.351.461 2.693.833 2.983.827.289-.007-.658-.397-2.106-.867-1.447-.47-2.789-.842-2.982-.827s.754.405 2.105.867m46.053-.29c.627.078 1.653.078 2.281 0 .627-.078.114-.142-1.141-.142-1.254 0-1.767.064-1.14.142m108.772 0c.627.078 1.653.078 2.28 0 .628-.078.114-.142-1.14-.142s-1.767.064-1.14.142m-103.948.467c1.385.287 5.694.451 5.41.205-.081-.07-1.646-.21-3.48-.312-2.213-.123-2.862-.087-1.93.107m98.421-.019-2.28.229 1.93.041c1.061.022 2.561-.091 3.333-.25 1.74-.36.476-.369-2.983-.02m51.579.197c-.675.256-.991.471-.701.479.289.008 1.158-.213 1.929-.491.772-.278 1.088-.493.702-.479-.386.015-1.254.236-1.93.491m-141.579.521c.965.15 2.307.266 2.983.257.993-.013.893-.069-.526-.29-.965-.15-2.307-.266-2.983-.257-.993.013-.893.069.526.29m81.93-.017c-1.92.236-1.922.237-.351.263.869.015 2.369-.096 3.334-.246 2.343-.365-.031-.378-2.983-.017m-137.017.351c.119.193.563.34.985.327.742-.024.744-.036.067-.327-.965-.415-1.309-.415-1.052 0m193.859 0c-.722.232-.753.286-.175.311.386.016.939-.124 1.228-.311.615-.397.188-.397-1.053 0m-131.579.195c1.217.263 6.428.378 5.788.128-.385-.15-1.963-.266-3.507-.257s-2.57.067-2.281.129m64.386.139c-.395.159.679.213 2.457.121 4.105-.21 4.597-.398 1.052-.402-1.544-.002-3.123.124-3.509.281m-45.614.734c5.06.323 29.54.324 34.035.002 1.93-.139-5.807-.251-17.193-.25-11.404.001-18.968.112-16.842.248m-75.614.32c.29.196.829.358 1.199.361.898.008.618-.193-.672-.482-.769-.172-.911-.139-.527.121m2.983.718c.119.193.563.339.985.326.742-.024.744-.036.067-.326-.965-.415-1.309-.415-1.052 0m176.842 0c-.677.29-.674.302.067.326.423.013.866-.133.986-.326.256-.415-.087-.415-1.053 0m-3.509.701-.702.302.702.019c.386.011.939-.134 1.228-.321.698-.45-.179-.45-1.228 0m-166.667.702c1.049.451 1.926.451 1.229 0-.29-.187-.843-.331-1.229-.321l-.701.02zm163.158 0-.701.302.701.019c.386.011.939-.134 1.228-.321.698-.451-.179-.451-1.228 0m-3.859.718c-.489.222-.277.253.701.104.772-.117 1.47-.271 1.55-.342.302-.266-1.578-.067-2.251.238m-152.54.583c.436.084 1.068.081 1.403-.007.336-.088-.021-.157-.793-.153s-1.047.076-.61.16m149.824 0c.437.084 1.069.081 1.404-.007s-.022-.157-.794-.153-1.046.076-.61.16m-3.425.453-1.579.246 1.404.028c.772.015 1.719-.108 2.105-.274.813-.349.317-.349-1.93 0m-142.193.248c.435.084 1.145.084 1.579 0 .435-.084.079-.152-.789-.152-.869 0-1.224.068-.79.152m3.286.487c.268.169 1.197.297 2.065.285 1.871-.026 1.54-.195-.837-.426-1.055-.103-1.527-.049-1.228.141m134.17-.033-1.403.252 1.228.014c.675.008 1.623-.111 2.105-.266 1.128-.361.087-.361-1.93 0m-129.122.69c.664.297 3.614.507 3.304.235-.081-.07-1.015-.223-2.076-.338-1.261-.138-1.687-.102-1.228.103m123.684.012-1.579.245 1.579.028c.868.016 1.895-.107 2.281-.273l.701-.302-.701.028c-.386.016-1.413.139-2.281.274m-117.719.702c.386.166 1.254.294 1.929.284l1.228-.016-1.052-.268c-1.576-.401-3.039-.401-2.105 0m111.929 0-1.403.251 1.228.015c.675.008 1.623-.112 2.105-.266 1.128-.361.087-.361-1.93 0m-105.263.701c.12.193 1.037.333 2.039.311l1.821-.04-1.404-.291c-1.934-.4-2.712-.393-2.456.02m98.07 0-1.228.259 1.579.041c.869.022 1.816-.112 2.106-.3.633-.409-.513-.409-2.457 0m-90 .702c.12.193 1.195.331 2.39.307l2.172-.044-1.579-.281c-2.233-.397-3.235-.391-2.983.018m81.229 0-1.579.246 2.105.047c1.158.026 2.342-.106 2.631-.293.616-.397-.601-.397-3.157 0m-70.702.72c.386.156 1.925.295 3.42.308l2.718.025.09 48.684.09 48.684.087-48.695c.068-38.71-.004-48.723-.353-48.832-.9-.281-6.731-.449-6.052-.174m60.526-.107c-1.447.068-2.742.234-2.878.369-.137.136.968.195 2.455.132s2.854-.26 3.037-.438c.183-.179.262-.294.176-.255-.087.038-1.342.125-2.79.192m-41.491 98.247c6.995.053 18.443.053 25.438 0 6.996-.053 1.272-.097-12.719-.097s-19.715.044-12.719.097" fill="#84bcac"/><path d="m107.368 47.982c0 .145 42.75.264 95 .264h95l.091 23.068.09 23.069-34.827.089-34.827.089-.092 15.067c-.05 8.286.029 15.186.176 15.333.146.147.224-6.592.172-14.977l-.095-15.244 34.831-.089 34.832-.09v-23.333-23.333l-95.175-.089c-52.347-.048-95.176.031-95.176.176m17.483 46.667c9.712.052 25.502.052 35.088 0s1.64-.094-17.658-.094c-19.299 0-27.142.042-17.43.094m52.342 15.421c-.097 8.337-.055 15.038.092 14.891.146-.147.225-6.968.175-15.158l-.092-14.891zm-9.649 15.544-2.807.222 2.631.03c1.448.016 3.5-.091 4.562-.237l1.93-.267-1.755.015c-.965.008-3.017.115-4.561.237m65.614-.004c2.203.292 7.065.451 6.813.223-.081-.073-2.12-.216-4.532-.317-2.93-.124-3.687-.093-2.281.094m-75.439.706-2.105.233 1.93.033c1.061.018 2.64-.094 3.509-.248l1.579-.281-1.404.015c-.772.008-2.351.12-3.509.248m86.316.004c1.388.303 4.99.468 4.708.216-.081-.071-1.489-.218-3.129-.326-2.13-.14-2.581-.109-1.579.11m-93.509.698c-1.203.253-1.206.259-.175.284.579.014 1.684-.105 2.456-.264l1.404-.291-1.229.006c-.675.003-1.78.122-2.456.265m101.579.02c.772.159 1.956.279 2.632.266 1.145-.022 1.121-.042-.351-.304-2.237-.398-4.229-.365-2.281.038m-108.07.695c-.663.177-.209.209 1.228.087 1.255-.106 2.347-.252 2.427-.323.266-.234-2.583-.051-3.655.236m114.561.004c2.238.398 4.229.365 2.281-.038-.772-.159-1.956-.279-2.631-.266-1.145.022-1.122.042.35.304m-120.175.693c-.638.168-.086.202 1.404.086 1.35-.105 2.521-.248 2.602-.318.269-.235-2.939-.048-4.006.232m124.415-.231c.081.071 1.173.216 2.427.323 1.437.122 1.891.09 1.228-.087-1.072-.287-3.921-.471-3.655-.236m-128.678.793c-.221.091-1.405.309-2.631.484l-2.229.318 2.281-.18c3.598-.285 6.214-.743 4.386-.767-.772-.011-1.585.055-1.807.145m32.158.131c-2.257.351 2.393.36 5.789.011l2.456-.252-3.333-.002c-1.833-.002-4.044.108-4.912.243m10.435-.096c.334.237.456 4.229.526 17.132l.091 16.823 2.106.032 2.105.031-2.014-.136-2.014-.137-.092-16.883c-.079-14.658-.16-16.902-.617-17.027-.386-.105-.41-.061-.091.165m51.129.184c-.092.241-.127 7.859-.076 16.929l.091 16.492.175-16.93c.097-9.312.131-16.93.077-16.93s-.175.197-.267.439m5.102-.077c1.448.136 3.579.248 4.737.247l2.106-.001-1.755-.273c-.965-.151-3.096-.262-4.737-.248l-2.982.026zm35.351-.114c.435.083 1.145.083 1.579 0 .434-.084.079-.153-.789-.153-.869 0-1.224.069-.79.153m3.246.436c.865.295 3.763.492 3.479.237-.08-.072-1.093-.223-2.251-.334-1.364-.131-1.796-.097-1.228.097m-114.386.381c-.675.149.588.186 2.807.082 2.219-.103 4.101-.246 4.181-.317.273-.24-5.752-.038-6.988.235m83.538-.229c.08.073 2.041.222 4.357.33 2.824.132 3.748.095 2.807-.113-1.363-.302-7.458-.486-7.164-.217m-114.064.567-1.228.259 1.228.021c.675.012 1.544-.114 1.929-.28l.702-.301-.702.021c-.385.012-1.254.138-1.929.28m149.473-.011c.87.29 3.41.48 3.129.234-.08-.07-1.015-.217-2.076-.327-1.246-.129-1.619-.096-1.053.093m-126.315.372c-.692.151.227.186 2.105.081 1.833-.102 3.399-.244 3.479-.314.266-.232-4.332-.04-5.584.233m99.678-.234c.08.07 1.567.212 3.304.315 2.148.128 2.709.094 1.754-.106-1.386-.291-5.341-.454-5.058-.209m-126.521.575-1.052.268 1.052.036c.579.02 1.29-.117 1.579-.304.652-.421.077-.421-1.579 0m157.369 0c.482.155 1.272.281 1.754.281h.877l-.877-.281c-.482-.154-1.272-.281-1.754-.281h-.877zm-136.017.221c-.222.091-1.406.308-2.632.483l-2.228.318 2.456-.205c1.351-.113 3.403-.318 4.561-.457l2.105-.253-1.929-.026c-1.062-.014-2.111.049-2.333.14m114.438.116c.965.145 2.939.356 4.386.469 2.271.178 2.367.165.702-.096-1.062-.165-3.035-.377-4.386-.469-1.977-.134-2.114-.116-.702.096m-139.474.365-.877.281.877.01c.483.006 1.193-.125 1.579-.291l.702-.302-.702.011c-.386.005-1.096.136-1.579.291m164.913 0c.289.187.921.327 1.403.31l.877-.029-.877-.281c-1.352-.433-2.074-.433-1.403 0m-168.246.702-.702.301h.702c.386 0 1.017-.135 1.403-.301l.702-.302h-.702c-.386 0-1.017.136-1.403.302m19.824 0-1.228.258 1.228.011c.676.007 1.623-.115 2.106-.269l.877-.281-.877.011c-.483.006-1.43.128-2.106.27m131.053 0c.579.147 1.605.268 2.281.269l1.228.001-1.404-.29c-1.89-.391-3.654-.375-2.105.02m20.877 0c.29.187.842.331 1.228.321l.702-.02-.702-.301c-1.049-.451-1.925-.451-1.228 0m-174.912.701c-.442.191-.507.302-.175.302.289 0 .842-.136 1.228-.302.442-.19.507-.301.175-.301-.289 0-.842.136-1.228.301m18.421 0-.877.281h.877c.483 0 1.272-.126 1.754-.281l.878-.28h-.878c-.482 0-1.271.126-1.754.28m140.526 0c.579.148 1.448.271 1.93.275l.877.006-.877-.281c-.482-.154-1.351-.278-1.93-.274l-1.052.007zm19.299 0c.386.166.938.302 1.228.302.331 0 .267-.111-.176-.302-.386-.165-.938-.301-1.228-.301-.332 0-.267.111.176.301m-181.228.702c-.698.451.179.451 1.228 0l.701-.301-.701-.02c-.386-.01-.939.134-1.228.321m17.193.019c-.378.256-.129.292.877.123 1.74-.291 2.02-.494.672-.487-.563.003-1.26.166-1.549.364m149.122-.019c.483.155 1.272.281 1.755.281h.877l-.877-.281c-.483-.154-1.272-.281-1.755-.281h-.877zm17.895 0c1.2.384 2.122.384 1.228 0-.386-.166-1.017-.297-1.403-.291-.564.008-.53.065.175.291m-187.017.707c-.371.243-.163.278.701.12 1.514-.278 1.799-.478.673-.471-.467.003-1.085.161-1.374.351m15.964-.005-.701.302.701-.011c.386-.005 1.097-.137 1.579-.291l.878-.281-.878-.01c-.482-.006-1.193.125-1.579.291m156.345-.222c.081.071.778.235 1.55.364 1.006.168 1.254.133.877-.124-.473-.322-2.779-.55-2.427-.24m16.843-.003c.08.07.619.232 1.198.362.769.172.911.139.527-.121-.474-.321-2.078-.544-1.725-.241m-193.538 1.476c-2.89.987-1.724.884 1.579-.14 1.254-.388 1.964-.705 1.578-.703-.385.002-1.807.382-3.157.843m17.017-.549c-.67.433.051.433 1.404 0l.877-.281-.877-.03c-.483-.016-1.114.124-1.404.311m164.035 0c.579.147 1.369.275 1.755.284l.701.017-.701-.301c-.386-.166-1.176-.294-1.755-.285l-1.052.017zm17.018.409c3.347 1.038 4.478 1.129 1.403.113-1.447-.478-2.868-.858-3.158-.844-.289.013.5.343 1.755.731m-187.847 1.112c-2.29.596-4.021 1.131-3.849 1.188.173.058 2.441-.439 5.04-1.105 2.599-.665 4.331-1.2 3.849-1.188-.483.011-2.751.509-5.04 1.105m173.49-1.045c.08.068.699.226 1.374.35.864.159 1.072.123.702-.12-.476-.311-2.424-.528-2.076-.23m2.807.705c.08.071.778.235 1.55.364 1.005.169 1.254.134.877-.123-.473-.323-2.779-.551-2.427-.241m15.936.573c.119.193.563.34.985.326.742-.023.744-.035.067-.326-.965-.415-1.309-.415-1.052 0m-11.404.545c.869.273 1.816.489 2.105.479.29-.01-.184-.242-1.052-.516-.869-.273-1.816-.489-2.105-.479-.29.01.184.242 1.052.516m-197.895.418c-.868.307-1.407.615-1.197.685.209.069 1.078-.183 1.929-.56 1.864-.827 1.456-.896-.732-.125m211.404-.261c.119.193.563.34.986.326.741-.024.743-.035.067-.326-.966-.415-1.31-.415-1.053 0m-214.825 1.608c-.627.275-1.14.569-1.14.655 0 .224 2.216-.546 2.614-.908.484-.439-.131-.334-1.474.253m12.544-.205c-.468.303-.468.34 0 .34.29 0 .763-.153 1.053-.34.468-.302.468-.34 0-.34-.29 0-.763.153-1.053.34m194.035 0c.29.187.764.34 1.053.34.468 0 .468-.037 0-.34-.289-.187-.763-.34-1.053-.34-.467 0-.467.038 0 .34m-210.175 1.93c-.868.465-1.421.846-1.228.846s1.061-.381 1.93-.846c.868-.465 1.421-.845 1.228-.845s-1.062.38-1.93.845m227.483.368c5.086 2.593 8.912 5.766 10.095 8.371.359.79.656 1.191.66.891.023-1.607-3.337-5.235-6.93-7.483-1.904-1.19-5.51-3.028-5.913-3.012-.169.007.771.562 2.088 1.233m-219.321 1.02c-3.495 1.877-5.137 3.095-6.122 4.541-.671.983-.611.958.61-.259 1.811-1.806 3.818-3.153 6.886-4.624 1.402-.672 2.317-1.219 2.033-1.215-.284.003-1.817.704-3.407 1.557m209.031-.787c.441.469 2.456 1.313 2.456 1.028 0-.175-.276-.398-.614-.495-.338-.098-.93-.299-1.316-.448s-.623-.187-.526-.085m-220.877 1.388c-2.462 1.54-4.636 3.37-5.52 4.645-.487.701-.14.464.98-.669.954-.965 2.8-2.444 4.102-3.287 2.024-1.31 2.678-1.824 2.28-1.794-.048.004-.877.501-1.842 1.105m223.713.06c.755.611 3.48 2.331 3.48 2.195 0-.23-3.033-2.314-3.368-2.314-.142 0-.192.053-.112.119m5.507 4.771c.325.566.639.981.699.922.189-.19-.724-1.952-1.012-1.952-.153 0-.012.463.313 1.03m-224.676 1.571c-.379 2.019.791 4.511 2.761 5.882.934.649.851.488-.51-.988-1.721-1.867-2.262-3.314-1.883-5.039.127-.579.147-1.053.044-1.053s-.289.539-.412 1.198m-11.867 1.697c-.29 1.081-.265 2.809.047 3.3.142.222.27-.607.284-1.842.028-2.457-.014-2.641-.331-1.458m234.579 3.785c-1.027.958-1.737 1.738-1.579 1.733.323-.009 2.488-1.946 3.225-2.887.795-1.013.323-.682-1.646 1.154m14.051.425c-.663 1.834-2.585 3.842-5.75 6.008-1.588 1.086-2.77 1.975-2.628 1.975 2.022 0 9.427-7.318 8.926-8.821-.065-.193-.311.184-.548.838m-247.648 1.177c.55 1.16 3.977 4.477 5.236 5.068.434.204.308.015-.299-.445-1.406-1.068-4.09-3.746-4.846-4.835-.605-.872-.605-.871-.091.212m14.937-.276c0 .166.395.482.877.702.483.22.878.343.878.272 0-.07-.395-.386-.878-.702-.482-.316-.877-.439-.877-.272m2.105 1.288c0 .245 4.227 2.287 4.712 2.277.207-.004-.176-.269-.852-.588-.675-.32-1.82-.872-2.544-1.228-.723-.355-1.316-.563-1.316-.461m210.527 1.08c-1.255.643-2.166 1.177-2.027 1.187.384.027 4.834-2.052 4.834-2.259 0-.307-.453-.134-2.807 1.072m-5.439 2.258c-.676.29-.674.302.067.326.423.014.867-.133.986-.326.256-.415-.087-.415-1.053 0m-2.105.702c-.677.29-.674.302.067.326.423.013.866-.134.986-.326.256-.416-.087-.416-1.053 0m-213.333.89c.792.643 4.402 2.524 3.859 2.011-.193-.182-1.298-.838-2.456-1.456-1.158-.619-1.789-.869-1.403-.555m139.917.765c.533.08 1.323.078 1.754-.005.432-.083-.005-.149-.97-.147-.965.003-1.318.071-.784.152m-112.9.45c.386.166.939.301 1.228.301.332 0 .267-.111-.175-.301-.386-.166-.939-.302-1.228-.302-.332 0-.267.112.175.302m76.842.046c4.515.286 23.106.285 27.895-.002 2.026-.121-4.211-.22-13.86-.22s-15.965.1-14.035.222m102.106-.046c-.443.19-.508.301-.176.301.29 0 .842-.135 1.228-.301.442-.19.507-.302.176-.302-.29 0-.843.136-1.228.302m-176.989.495c.081.079 1.331.394 2.778.7s3.737.794 5.088 1.084c1.35.29 2.771.509 3.157.487.387-.023-.64-.32-2.28-.661-1.64-.34-4.167-.874-5.614-1.186-2.704-.583-3.384-.675-3.129-.424m174.181.207c-.442.19-.507.301-.175.301.29 0 .842-.136 1.228-.301.442-.191.507-.302.176-.302-.29 0-.843.136-1.229.302m26.188.221c-.65.284-1.099.598-.998.699.194.194 2.354-.82 2.354-1.105 0-.199.099-.229-1.356.406m-30.573.67c-1.062.245-1.536.453-1.053.463.482.011 1.746-.197 2.807-.462 2.417-.604.867-.604-1.754-.001m-191.285.919c.838.385 1.61.612 1.717.505.107-.106-.105-.288-.47-.403s-.938-.356-1.274-.535c-.335-.178-.808-.312-1.052-.295-.244.016.242.344 1.079.728m186.899-.056-1.404.251 1.228.025c.676.014 1.544-.11 1.93-.276.827-.355.23-.355-1.754 0m30.104.493c-.618.225-1.231.517-1.363.649-.326.325 1.749-.284 2.548-.749.816-.474.263-.427-1.185.1m-182.736.191c.667.303 3.261.513 2.953.238-.08-.072-.935-.227-1.9-.344-1.181-.144-1.525-.109-1.053.106m148.772.018-1.053.268 1.053.016c.579.01 1.368-.118 1.754-.284l.702-.302-.702.017c-.386.009-1.175.137-1.754.285m-178.976.859c1.143.492 2.327.889 2.632.882s-.314-.336-1.375-.732c-2.894-1.08-3.613-1.166-1.257-.15m34.415-.175c.667.303 3.26.512 2.953.238-.081-.072-.936-.227-1.901-.344-1.181-.144-1.525-.109-1.052.106m140.175.017-1.228.259 1.228.021c.675.012 1.544-.114 1.93-.28l.702-.301-.702.021c-.386.012-1.255.138-1.93.28m33.333.89c-1.254.442-2.054.817-1.777.834.47.029 4.586-1.308 4.906-1.593.355-.317-1.028.018-3.129.759m-168.772-.188c.483.155 1.43.279 2.106.276l1.228-.006-1.404-.29c-1.874-.388-3.161-.374-1.93.02m130.351 0-1.403.251 1.403.015c.772.008 1.798-.111 2.281-.266l.877-.281-.877.015c-.483.008-1.509.128-2.281.266m-124.912.702c.579.147 1.605.268 2.281.269l1.228.001-1.404-.29c-1.89-.391-3.654-.374-2.105.02m119.474 0-1.228.258 1.403.012c.772.006 1.798-.116 2.281-.27 1.201-.385-.629-.385-2.456 0m-158.246.702c.289.187.763.34 1.053.34.467 0 .467-.038 0-.34-.29-.187-.764-.34-1.053-.34-.468 0-.468.037 0 .34m45.088.02c.772.159 1.877.281 2.456.27.916-.018.87-.058-.351-.31-.772-.16-1.877-.282-2.456-.271-.916.018-.87.058.351.311m106.842-.02-1.228.258 1.228.005c.675.002 1.702-.116 2.281-.263l1.052-.268-1.052.005c-.579.002-1.606.121-2.281.263m46.316 0c-.468.302-.468.34 0 .34.289 0 .763-.153 1.052-.34.468-.303.468-.34 0-.34-.289 0-.763.153-1.052.34m-148.392.482c.08.072 1.646.216 3.479.32 2.378.135 2.83.106 1.579-.1-1.811-.299-5.317-.452-5.058-.22m94.532.235c-.853.162-.233.194 1.579.081 1.64-.103 3.048-.245 3.129-.317.247-.221-3.222-.047-4.708.236m-139.298.686c1.049.451 1.925.451 1.228 0-.29-.187-.842-.331-1.228-.321l-.702.02zm55.789-.001c1.544.149 5.412.352 8.597.45 5.244.161 5.36.153 1.228-.087-8.797-.51-12.921-.662-9.825-.363m73.334.011c-.965.138.14.17 2.456.073 2.315-.098 4.276-.235 4.356-.306.243-.212-4.932-.035-6.812.233m58.771-.01c-.697.451.18.451 1.229 0l.701-.301-.701-.02c-.386-.01-.939.134-1.229.321m-185.584.477c.08.069.62.232 1.199.362.768.172.91.139.526-.121-.474-.321-2.077-.544-1.725-.241m118.844.134c1.214.069 3.108.068 4.21-.001s.109-.126-2.206-.125c-2.316.001-3.218.058-2.004.126m63.933.091c-.697.451.18.451 1.229 0l.701-.302-.701-.019c-.386-.011-.939.134-1.229.321m-107.719.392c5.276.284 31.057.286 35.79.004 2.026-.122-6.106-.221-18.071-.221-11.964 0-19.938.098-17.719.217m-72.251.088c.08.071.777.225 1.549.342.979.149 1.191.118.702-.104-.673-.305-2.553-.504-2.251-.238m176.813.227c-.371.242-.163.278.701.119 1.514-.277 1.799-.477.673-.47-.467.003-1.085.161-1.374.351m-173.655.474c.08.071.777.226 1.549.343.978.149 1.191.117.702-.104-.674-.305-2.553-.504-2.251-.239m168.216.594c-1.544.352-3.281.673-3.86.713-.934.065-.954.087-.175.199.482.069 2.693-.259 4.912-.728s3.562-.846 2.983-.838c-.579.007-2.316.302-3.86.654m-163.158.513c1.158.26 2.5.471 2.983.467.482-.004-.071-.22-1.229-.481-1.157-.261-2.5-.472-2.982-.468s.07.221 1.228.482m4.737.853c.877.298 3.054.484 2.778.237-.081-.072-.936-.221-1.901-.333-1.183-.137-1.469-.105-.877.096m151.228.017c-.695.222-.731.281-.175.281.386 0 1.096-.127 1.578-.281.695-.223.732-.281.176-.281-.386 0-1.097.126-1.579.281m-146.842.702c1.484.377 2.758.377 1.579 0-.483-.155-1.272-.278-1.755-.275-.787.006-.77.034.176.275m142.281 0c-.856.274-.851.281.175.291.579.006 1.368-.126 1.754-.291.96-.413-.642-.413-1.929 0m-137.544.701c.482.155 1.351.278 1.93.275l1.052-.007-1.052-.268c-.579-.147-1.448-.27-1.93-.274l-.877-.007zm132.982 0-.877.281.877-.006c.483-.004 1.351-.127 1.93-.275l1.053-.267-1.053-.007c-.579-.004-1.447.12-1.93.274m-129.093.483c.08.072 1.093.222 2.251.334 1.364.131 1.796.097 1.228-.097-.865-.295-3.763-.493-3.479-.237m123.304.219-1.053.268 1.053.021c.579.012 1.684-.109 2.456-.269l1.403-.29-1.403.001c-.772.001-1.877.122-2.456.269m-116.316.72c2.212.393 4.055.382 2.807-.018-.483-.155-1.667-.277-2.632-.272l-1.754.009zm110-.018-1.053.268 1.053.015c.579.009 1.763-.111 2.631-.265l1.579-.281-1.579-.003c-.868-.001-2.052.119-2.631.266m-105.76.482c.08.072 1.804.22 3.83.328 2.509.134 3.236.098 2.281-.111-1.369-.3-6.402-.479-6.111-.217m98.567.22-1.228.258 1.403.008c.772.005 2.351-.109 3.509-.253l2.105-.261-2.28-.005c-1.255-.003-2.834.11-3.509.253m-90.848.48c.08.072 1.883.214 4.006.316 2.63.127 3.245.097 1.93-.095-2.005-.292-6.192-.448-5.936-.221m82.602.233c-.969.14.051.173 2.281.074 2.219-.098 4.101-.237 4.181-.308.241-.212-4.574-.037-6.462.234m-71.479.598c1.019.071 2.598.071 3.509-.001.91-.072.076-.131-1.854-.13s-2.675.06-1.655.131m60.076.051-1.228.217-.089 48.859-.089 48.86h-25.085-25.086l-.09-48.597-.091-48.596.002 48.684.001 48.684h25.264 25.263l.089-48.859c.084-46.208.122-48.863.701-48.906.337-.026 2.429-.156 4.648-.29l4.035-.244-3.508-.015c-1.93-.008-4.062.083-4.737.203m-54.123.289c.434.083 1.145.083 1.579 0 .434-.084.079-.152-.79-.152-.868 0-1.223.068-.789.152" fill="#acd4c4"/></g></svg>